<svg width="662" height="377" viewBox="0 0 662 377" fill="none" xmlns="http://www.w3.org/2000/svg">
<path d="M382.126 376.237L336.941 286.007L328.048 336.324H284.184L308.883 196.07H374.09C389.108 196.07 400.501 199.438 408.273 206.173C416.045 212.909 419.932 221.889 419.932 233.115C419.932 236.417 419.67 239.388 419.14 242.029C417.428 251.538 413.344 259.891 406.891 267.089C400.437 274.286 387.122 278.402 371.637 278.402V283.577H384.025L430.142 376.237H382.126ZM342.079 256.688H359.469C363.684 256.688 367.01 255.731 369.446 253.816C371.882 251.901 373.496 248.897 374.288 244.803C374.419 244.142 374.486 243.284 374.486 242.227C374.486 239.322 373.564 237.044 371.718 235.393C369.875 233.742 367.174 232.917 363.617 232.917H346.227L342.079 256.688Z" fill="#DAF7A6"/>
<path d="M108.255 40.4839L102.903 73.5296H60.1202L58.8425 78.6563H70.1981L51.2609 180.739H12.9313L32.1142 73.5296H0L5.35222 40.4839H108.255Z" fill="#DAF7A6"/>
<path d="M150.908 78.6563L148.284 92.784H205.432L198.78 129.369H141.428L139.175 144.893H196.142L189.948 180.741H97.4819L122.182 40.4839H215.447L207.976 78.6563H150.908Z" fill="#DAF7A6"/>
<path d="M224.792 234.813L222.168 248.941H279.316L272.663 285.526H215.312L213.059 301.05H270.025L263.831 336.898H171.366L196.066 196.641H289.331L281.86 234.813H224.792Z" fill="#DAF7A6"/>
<path d="M594.365 234.813L591.741 248.941H648.889L642.236 285.526H584.885L582.632 301.05H639.598L633.404 336.898H540.938L565.638 196.641H658.903L651.432 234.813H594.365Z" fill="#DAF7A6"/>
<path d="M585.327 41.3981C591.521 42.4331 600.812 43.468 607.006 47.6078C613.2 51.7477 617.721 57.8017 622.491 67.2718C627.675 77.5647 628.623 85.1922 628.623 96.1513C628.623 100.511 628.229 105.198 627.436 110.217C625.067 123.556 619.959 135.575 612.122 146.269C604.286 156.968 594.339 165.389 582.284 171.531C570.233 177.668 556.894 180.741 542.273 180.741H513.128H483.984L502.741 74.5165H492.418L500.034 40.484H552.293H560.551H566.745C566.745 40.484 579.133 40.3631 585.327 41.3981ZM545.237 141.515C555.116 141.515 563.448 138.807 570.233 133.393C577.017 127.978 581.265 120.252 582.976 110.217C583.374 107.578 583.571 105.131 583.571 102.886C583.571 95.0963 581.164 89.1519 576.359 85.0573C571.549 80.9627 564.866 78.9154 556.303 78.9154H545.828L534.763 141.515H545.237Z" fill="#DAF7A6"/>
<path d="M78.8063 196.07L94.9739 304.968H100.988L138.372 196.07H180.879L129.798 336.327H60.6967L45.4223 231.312H36.1314L30.9697 196.07H38.3681H78.8063Z" fill="#DAF7A6"/>
<path d="M476.652 337.684C459.528 337.684 445.862 334.249 435.652 327.38C425.441 320.515 420.338 310.476 420.338 297.268C420.338 295.948 420.468 293.968 420.732 291.328H467.364C466.97 295.423 467.595 298.457 469.243 300.437C470.891 302.422 473.62 303.409 477.44 303.409C479.814 303.409 481.789 302.817 483.37 301.627C484.951 300.437 485.743 298.722 485.743 296.478C485.743 293.308 484.196 290.668 481.097 288.553C478.003 286.439 473.029 283.929 466.178 281.024C458.672 277.854 452.512 274.82 447.703 271.915C442.898 269.01 438.712 265.045 435.157 260.026C431.601 255.006 429.823 248.734 429.823 241.21C429.823 231.301 432.293 222.751 437.233 215.554C442.172 208.357 449.053 202.909 457.879 199.209C466.706 195.514 476.782 193.664 488.112 193.664C498.256 193.664 507.313 195.249 515.284 198.419C523.251 201.589 529.512 206.179 534.052 212.187C538.598 218.194 540.871 225.294 540.871 233.483C540.871 234.538 540.741 236.388 540.477 239.028H493.249C493.513 237.443 493.648 236.388 493.648 235.858C493.648 233.348 492.922 231.402 491.471 230.015C490.025 228.628 488.045 227.934 485.546 227.934C483.307 227.934 481.462 228.594 480.011 229.919C478.56 231.238 477.839 232.953 477.839 235.068C477.839 237.973 479.353 240.516 482.385 242.694C485.412 244.871 490.222 247.545 496.809 250.719C504.315 254.284 510.542 257.651 515.481 260.821C520.421 263.99 524.668 268.181 528.224 273.398C531.78 278.615 533.558 284.989 533.558 292.518C533.558 301.102 531.29 308.824 526.744 315.693C522.199 322.558 515.645 327.943 507.082 331.836C498.52 335.733 488.377 337.684 476.652 337.684Z" fill="#DAF7A6"/>
<path d="M307.633 202.851L289.051 159.383L273.566 119.719H261.89L251.22 180.734H207.354L240.595 0H284.394L265.447 99.5129C265.447 99.5129 288.019 93.1457 298.342 77.6214C308.665 62.0971 316.032 40.4794 316.032 40.4794H363.563C363.563 40.4794 354.124 64.4342 344.796 77.6214C329.312 99.5129 301.579 100.908 301.579 100.908L300.406 106.6H314.859L360.281 212.165L307.633 202.851Z" fill="#DAF7A6"/>
<path d="M344.796 136.096L393.107 40.4766H447.819L474.099 180.731H427.862L424.701 159.534H378.068L367.396 180.731H363.869L344.796 136.096ZM422.024 126.451L416.794 71.4117H412.93L388.472 126.451H422.024Z" fill="#DAF7A6"/>
</svg>
