<svg width="663" height="375" viewBox="0 0 663 375" fill="none" xmlns="http://www.w3.org/2000/svg">
<path d="M383.086 375L337.902 285.086L329.008 335.227H285.144L309.843 195.465H375.051C390.068 195.465 401.462 198.821 409.234 205.532C417.006 212.244 420.892 221.193 420.892 232.379C420.892 235.67 420.63 238.631 420.1 241.263C418.388 250.738 414.304 259.062 407.851 266.234C401.398 273.406 388.082 277.508 372.597 277.508V282.664H384.985L431.102 375H383.086ZM343.039 255.87H360.429C364.644 255.87 367.97 254.916 370.406 253.008C372.843 251.1 374.457 248.106 375.249 244.026C375.38 243.368 375.447 242.513 375.447 241.46C375.447 238.565 374.524 236.294 372.678 234.649C370.836 233.005 368.134 232.182 364.577 232.182H347.187L343.039 255.87Z" fill="url(#paint0_linear_3771_2210)"/>
<path d="M109.215 40.4244L103.863 73.3542H61.0806L59.803 78.4629H71.1585L52.2214 180.187H13.8918L33.0746 73.3542H0.960449L6.31267 40.4244H109.215Z" fill="url(#paint1_linear_3771_2210)"/>
<path d="M151.869 78.4629L149.245 92.541H206.393L199.74 128.998H142.389L140.136 144.467H197.102L190.908 180.189H98.4424L123.142 40.4244H216.407L208.936 78.4629H151.869Z" fill="url(#paint2_linear_3771_2210)"/>
<path d="M225.752 234.072L223.128 248.15H280.277L273.624 284.607H216.273L214.019 300.076H270.986L264.792 335.798H172.326L197.026 196.033H290.291L282.82 234.072H225.752Z" fill="url(#paint3_linear_3771_2210)"/>
<path d="M595.325 234.072L592.701 248.15H649.849L643.197 284.607H585.845L583.592 300.076H640.559L634.365 335.798H541.899L566.599 196.033H659.864L652.393 234.072H595.325Z" fill="url(#paint4_linear_3771_2210)"/>
<path d="M586.288 41.3354C592.482 42.3667 601.773 43.398 607.966 47.5233C614.16 51.6486 618.681 57.6814 623.451 67.1183C628.636 77.3751 629.583 84.9758 629.583 95.8965C629.583 100.241 629.189 104.911 628.396 109.913C626.027 123.205 620.92 135.182 613.083 145.839C605.246 156.5 595.3 164.891 583.244 171.011C571.193 177.127 557.855 180.189 543.233 180.189H514.089H484.944L503.702 74.3375H493.378L500.994 40.4244H553.253H561.512H567.706C567.706 40.4244 580.094 40.304 586.288 41.3354ZM546.198 141.101C556.077 141.101 564.409 138.403 571.193 133.007C577.978 127.612 582.225 119.912 583.936 109.913C584.335 107.283 584.532 104.844 584.532 102.607C584.532 94.8452 582.125 88.9216 577.32 84.8414C572.51 80.7612 565.826 78.7211 557.264 78.7211H546.789L535.723 141.101H546.198Z" fill="url(#paint5_linear_3771_2210)"/>
<path d="M79.7667 195.465L95.9343 303.981H101.949L139.332 195.465H181.84L130.758 335.23H61.6572L46.3827 230.583H37.0918L31.9302 195.465H39.3286H79.7667Z" fill="url(#paint6_linear_3771_2210)"/>
<path d="M477.613 336.581C460.488 336.581 446.823 333.159 436.612 326.314C426.402 319.473 421.299 309.469 421.299 296.307C421.299 294.992 421.429 293.019 421.693 290.388H468.325C467.931 294.469 468.556 297.493 470.204 299.466C471.852 301.443 474.581 302.427 478.401 302.427C480.775 302.427 482.749 301.837 484.33 300.651C485.911 299.466 486.704 297.757 486.704 295.52C486.704 292.361 485.157 289.731 482.057 287.623C478.963 285.516 473.99 283.015 467.138 280.121C459.633 276.962 453.473 273.938 448.663 271.043C443.858 268.149 439.673 264.198 436.117 259.196C432.562 254.194 430.784 247.944 430.784 240.446C430.784 230.572 433.254 222.052 438.193 214.88C443.133 207.708 450.013 202.279 458.84 198.593C467.667 194.911 477.743 193.067 489.073 193.067C499.216 193.067 508.273 194.647 516.245 197.805C524.211 200.964 530.472 205.539 535.013 211.525C539.558 217.51 541.831 224.586 541.831 232.747C541.831 233.798 541.701 235.641 541.437 238.272H494.209C494.474 236.692 494.608 235.641 494.608 235.113C494.608 232.612 493.883 230.673 492.431 229.29C490.985 227.908 489.005 227.217 486.507 227.217C484.268 227.217 482.423 227.874 480.972 229.194C479.52 230.51 478.8 232.219 478.8 234.326C478.8 237.22 480.313 239.755 483.345 241.925C486.372 244.094 491.182 246.759 497.77 249.922C505.275 253.474 511.502 256.83 516.442 259.988C521.381 263.147 525.629 267.323 529.185 272.522C532.74 277.72 534.518 284.071 534.518 291.574C534.518 300.128 532.25 307.823 527.705 314.668C523.159 321.509 516.605 326.875 508.043 330.754C499.48 334.637 489.337 336.581 477.613 336.581Z" fill="url(#paint7_linear_3771_2210)"/>
<path d="M308.593 202.221L290.011 158.906L274.526 119.381H262.851L252.181 180.182H208.314L241.555 0.0825195H285.354L266.408 99.2462C266.408 99.2462 288.979 92.9014 299.302 77.4316C309.625 61.9618 316.992 40.4199 316.992 40.4199H364.524C364.524 40.4199 355.085 64.2907 345.757 77.4316C330.272 99.2462 302.54 100.636 302.54 100.636L301.367 106.309H315.819L361.242 211.503L308.593 202.221Z" fill="url(#paint8_linear_3771_2210)"/>
<path d="M345.757 135.701L394.068 40.4171H448.78L475.06 180.179H428.823L425.661 159.057H379.028L368.357 180.179H364.83L345.757 135.701ZM422.984 126.09L417.754 71.2436H413.89L389.433 126.09H422.984Z" fill="url(#paint9_linear_3771_2210)"/>
<defs>
<linearGradient id="paint0_linear_3771_2210" x1="358.123" y1="195.465" x2="358.123" y2="375" gradientUnits="userSpaceOnUse">
<stop offset="0.415" stop-color="#FF5733"/>
<stop offset="0.875"/>
</linearGradient>
<linearGradient id="paint1_linear_3771_2210" x1="55.0879" y1="40.4244" x2="55.0879" y2="180.187" gradientUnits="userSpaceOnUse">
<stop offset="0.415" stop-color="#FF5733"/>
<stop offset="0.875"/>
</linearGradient>
<linearGradient id="paint2_linear_3771_2210" x1="157.425" y1="40.4244" x2="157.425" y2="180.189" gradientUnits="userSpaceOnUse">
<stop offset="0.415" stop-color="#FF5733"/>
<stop offset="0.875"/>
</linearGradient>
<linearGradient id="paint3_linear_3771_2210" x1="231.309" y1="196.033" x2="231.309" y2="335.798" gradientUnits="userSpaceOnUse">
<stop offset="0.415" stop-color="#FF5733"/>
<stop offset="0.875"/>
</linearGradient>
<linearGradient id="paint4_linear_3771_2210" x1="600.881" y1="196.033" x2="600.881" y2="335.798" gradientUnits="userSpaceOnUse">
<stop offset="0.415" stop-color="#FF5733"/>
<stop offset="0.875"/>
</linearGradient>
<linearGradient id="paint5_linear_3771_2210" x1="557.264" y1="40.4201" x2="557.264" y2="180.189" gradientUnits="userSpaceOnUse">
<stop offset="0.415" stop-color="#FF5733"/>
<stop offset="0.875"/>
</linearGradient>
<linearGradient id="paint6_linear_3771_2210" x1="106.885" y1="195.465" x2="106.885" y2="335.23" gradientUnits="userSpaceOnUse">
<stop offset="0.415" stop-color="#FF5733"/>
<stop offset="0.875"/>
</linearGradient>
<linearGradient id="paint7_linear_3771_2210" x1="481.565" y1="193.067" x2="481.565" y2="336.581" gradientUnits="userSpaceOnUse">
<stop offset="0.415" stop-color="#FF5733"/>
<stop offset="0.875"/>
</linearGradient>
<linearGradient id="paint8_linear_3771_2210" x1="286.419" y1="0.0825195" x2="286.419" y2="211.503" gradientUnits="userSpaceOnUse">
<stop offset="0.415" stop-color="#FF5733"/>
<stop offset="0.875"/>
</linearGradient>
<linearGradient id="paint9_linear_3771_2210" x1="410.408" y1="40.4171" x2="410.408" y2="180.179" gradientUnits="userSpaceOnUse">
<stop offset="0.415" stop-color="#FF5733"/>
<stop offset="0.875"/>
</linearGradient>
</defs>
</svg>
