<svg width="85" height="48" viewBox="0 0 85 48" fill="none" xmlns="http://www.w3.org/2000/svg">
<path d="M48.8748 48L43.0955 36.4885L41.9581 42.9079H36.3477L39.5068 25.0145H47.8471C49.7679 25.0145 51.2251 25.4441 52.2192 26.3034C53.2133 27.1627 53.7103 28.3084 53.7103 29.7406C53.7103 30.1618 53.6768 30.5409 53.609 30.8779C53.3901 32.091 52.8677 33.1567 52.0423 34.0749C51.2169 34.9932 49.5138 35.5183 47.5332 35.5183V36.1785H49.1177L55.0162 48H48.8748ZM43.7527 32.7481H45.9769C46.516 32.7481 46.9414 32.6259 47.253 32.3816C47.5646 32.1373 47.7711 31.754 47.8724 31.2317C47.8891 31.1474 47.8977 31.0379 47.8977 30.9031C47.8977 30.5325 47.7797 30.2418 47.5436 30.0312C47.308 29.8206 46.9624 29.7153 46.5075 29.7153H44.2832L43.7527 32.7481Z" fill="#DAF7A6"/>
<path d="M13.8462 5.16492L13.1616 9.38086H7.68958L7.52617 10.0349H8.97859L6.55646 23.0585H1.65396L4.10752 9.38086H0L0.684568 5.16492H13.8462Z" fill="#DAF7A6"/>
<path d="M19.3022 10.0349L18.9665 11.8373H26.276L25.4251 16.5048H18.0897L17.8015 18.4854H25.0877L24.2954 23.0588H12.4688L15.628 5.16492H27.5569L26.6013 10.0349H19.3022Z" fill="#DAF7A6"/>
<path d="M28.7514 29.9572L28.4158 31.7596H35.7252L34.8743 36.4271H27.5389L27.2507 38.4077H34.5369L33.7447 42.9811H21.918L25.0772 25.0872H37.0061L36.0505 29.9572H28.7514Z" fill="#DAF7A6"/>
<path d="M76.0209 29.9572L75.6853 31.7596H82.9948L82.1438 36.4271H74.8084L74.5202 38.4077H81.8064L81.0142 42.9811H69.1875L72.3467 25.0872H84.2756L83.3201 29.9572H76.0209Z" fill="#DAF7A6"/>
<path d="M74.8655 5.28155C75.6577 5.41359 76.8461 5.54562 77.6383 6.07378C78.4305 6.60194 79.0087 7.3743 79.6189 8.58249C80.282 9.89564 80.4031 10.8688 80.4031 12.2669C80.4031 12.8231 80.3527 13.4211 80.2513 14.0615C79.9484 15.7632 79.2951 17.2966 78.2927 18.6609C77.2903 20.0259 76.0182 21.1001 74.4762 21.8837C72.9349 22.6667 71.2288 23.0588 69.3587 23.0588H65.631H61.9033L64.3024 9.50675H62.9821L63.9562 5.16492H70.6403H71.6966H72.4888C72.4888 5.16492 74.0733 5.1495 74.8655 5.28155ZM69.7379 18.0543C71.0014 18.0543 72.0671 17.7089 72.9349 17.0182C73.8026 16.3274 74.3459 15.3416 74.5647 14.0615C74.6157 13.7247 74.6409 13.4125 74.6409 13.1261C74.6409 12.1323 74.333 11.3739 73.7184 10.8515C73.1033 10.3292 72.2484 10.068 71.1532 10.068H69.8135L68.3981 18.0543H69.7379Z" fill="#DAF7A6"/>
<path d="M10.0794 25.0145L12.1473 38.9075H12.9165L17.6981 25.0145H23.1349L16.6014 42.9083H7.76313L5.80947 29.5105H4.62113L3.96094 25.0145H4.90722H10.0794Z" fill="#DAF7A6"/>
<path d="M60.9655 43.0813C58.7751 43.0813 57.0273 42.6432 55.7213 41.7668C54.4154 40.891 53.7627 39.6103 53.7627 37.9251C53.7627 37.7567 53.7793 37.5041 53.8131 37.1673H59.7775C59.7271 37.6897 59.807 38.0769 60.0178 38.3295C60.2286 38.5827 60.5777 38.7087 61.0663 38.7087C61.3699 38.7087 61.6224 38.6331 61.8246 38.4813C62.0268 38.3295 62.1282 38.1107 62.1282 37.8243C62.1282 37.4199 61.9303 37.0831 61.5339 36.8133C61.1382 36.5435 60.5021 36.2234 59.6257 35.8528C58.6657 35.4484 57.8779 35.0612 57.2627 34.6906C56.6481 34.32 56.1128 33.8142 55.658 33.1738C55.2032 32.5335 54.9759 31.7333 54.9759 30.7733C54.9759 29.5092 55.2917 28.4183 55.9235 27.5001C56.5553 26.582 57.4354 25.8869 58.5643 25.4149C59.6933 24.9435 60.9821 24.7075 62.4312 24.7075C63.7286 24.7075 64.887 24.9097 65.9066 25.3141C66.9256 25.7185 67.7264 26.3042 68.3071 27.0705C68.8885 27.8369 69.1792 28.7428 69.1792 29.7876C69.1792 29.9222 69.1626 30.1582 69.1288 30.4949H63.0882C63.122 30.2927 63.1392 30.1582 63.1392 30.0906C63.1392 29.7704 63.0464 29.5221 62.8608 29.3451C62.6758 29.1681 62.4226 29.0796 62.103 29.0796C61.8167 29.0796 61.5807 29.1638 61.3951 29.3328C61.2095 29.5012 61.1173 29.72 61.1173 29.9898C61.1173 30.3603 61.3109 30.6848 61.6986 30.9626C62.0858 31.2404 62.701 31.5815 63.5436 31.9865C64.5036 32.4413 65.3 32.8709 65.9318 33.2753C66.5636 33.6796 67.1069 34.2143 67.5617 34.8799C68.0165 35.5455 68.2438 36.3586 68.2438 37.3191C68.2438 38.4143 67.9538 39.3995 67.3724 40.2758C66.791 41.1516 65.9527 41.8387 64.8576 42.3353C63.7624 42.8324 62.465 43.0813 60.9655 43.0813Z" fill="#DAF7A6"/>
<path d="M39.3475 25.8795L36.9708 20.3339L34.9902 15.2736H33.4969L32.1321 23.0578H26.5215L30.7731 0H36.3752L33.9518 12.6957C33.9518 12.6957 36.8388 11.8834 38.1591 9.90286C39.4795 7.92229 40.4218 5.16432 40.4218 5.16432H46.5012C46.5012 5.16432 45.2939 8.22045 44.1009 9.90286C42.1203 12.6957 38.5732 12.8737 38.5732 12.8737L38.4232 13.5999H40.2718L46.0814 27.0678L39.3475 25.8795Z" fill="#DAF7A6"/>
<path d="M44.1006 17.363L50.2797 5.16394H57.2776L60.6389 23.0574H54.725L54.3207 20.3532H48.3561L46.9912 23.0574H46.5401L44.1006 17.363ZM53.9782 16.1325L53.3093 9.11061H52.8151L49.6869 16.1325H53.9782Z" fill="#DAF7A6"/>
</svg>
