<svg width="21" height="20" viewBox="0 0 21 20" fill="none" xmlns="http://www.w3.org/2000/svg">
<path d="M10.3287 18.8776C9.89686 16.8274 8.3433 14.2881 5.48812 12.2985C4.08494 11.3149 2.67034 10.6919 1.29312 10.4518L1.25794 9.4444C3.94567 8.70215 6.54439 6.78629 8.16108 4.25633C8.981 2.97893 9.48995 1.73641 9.68541 0.456814L10.6928 0.421636C11.1851 2.82992 13.1498 5.45095 15.7551 7.16107C17.0333 8.00497 18.3495 8.55938 19.6787 8.80114L19.7139 9.80852C17.0708 10.4532 14.0596 12.9358 12.6091 15.4119C11.8843 16.6619 11.4679 17.8052 11.3361 18.8424L10.3287 18.8776Z" fill="#111111"/>
</svg>
